# xmcd
#
# Track frame offsets: 
#        150
#        11577
#        26320
#        40127
#        54337
#        65957
#        78145
#        91295
#        104765
#        127667
#
# Disc length: 1859 seconds
#
# Revision: 1
# Processed by: cddbd v1.5.2PL0 Copyright (c) Steve Scherf et al.
# Submitted via: ExactAudioCopy v0.99pb5
#
DISCID=7407410a
DTITLE=Louis Jordan - Let The Good Times Roll Re-Recordings
DYEAR=1972
DGENRE=Jazz
TTITLE0=Let The Good Times Roll
TTITLE1=Helping Hand
TTITLE2=Ain't Nobody Here But Us Chickens
TTITLE3=I'm Gonna MoveTo The Outskirts Of Town
TTITLE4=Choo Choo Ch'Boogie
TTITLE5=Caldonia
TTITLE6=Beans And Cornbread
TTITLE7=I Got The Walkin' Blues
TTITLE8=Saturday Night Fish Fry
TTITLE9=I'm A Good Thing
EXTD=
EXTT0=
EXTT1=
EXTT2=
EXTT3=
EXTT4=
EXTT5=
EXTT6=
EXTT7=
EXTT8=
EXTT9=
PLAYORDER=
